<?xml version="1.0" standalone="no"?>
<!DOCTYPE svg PUBLIC "-//W3C//DTD SVG 20010904//EN"
 "http://www.w3.org/TR/2001/REC-SVG-20010904/DTD/svg10.dtd">
<svg version="1.0" xmlns="http://www.w3.org/2000/svg"
 width="512.000000pt" height="512.000000pt" viewBox="0 0 512.000000 512.000000"
 preserveAspectRatio="xMidYMid meet">

<g transform="translate(0.000000,512.000000) scale(0.100000,-0.100000)"
fill="#000000" stroke="none">
<path d="M674 5105 c-75 -16 -179 -57 -179 -70 1 -12 2306 -2143 2320 -2144 6
-1 185 174 398 387 l389 389 -1235 682 c-680 374 -1264 695 -1300 711 -120 57
-265 73 -393 45z"/>
<path d="M216 4750 c-58 -130 -56 -20 -56 -2190 0 -2163 -2 -2063 54 -2186 14
-30 29 -54 33 -54 4 0 534 526 1176 1168 l1168 1168 -1167 1077 c-642 592
-1171 1077 -1174 1077 -4 0 -19 -27 -34 -60z"/>
<path d="M3468 3083 l-416 -418 371 -342 c205 -188 436 -401 514 -473 l143
-132 277 153 c153 84 303 169 334 190 162 109 269 307 269 499 0 192 -111 396
-273 503 -66 43 -780 437 -793 437 -5 0 -197 -188 -426 -417z"/>
<path d="M1650 1265 c-933 -933 -1172 -1177 -1160 -1185 27 -17 144 -58 198
-69 117 -24 284 -1 395 55 74 38 2680 1475 2690 1484 7 6 -373 362 -923 866
l-26 23 -1174 -1174z"/>
</g>
</svg>
