<?xml version="1.0" standalone="no"?>
<!DOCTYPE svg PUBLIC "-//W3C//DTD SVG 20010904//EN"
 "http://www.w3.org/TR/2001/REC-SVG-20010904/DTD/svg10.dtd">
<svg version="1.0" xmlns="http://www.w3.org/2000/svg"
 width="512.000000pt" height="512.000000pt" viewBox="0 0 512.000000 512.000000"
 preserveAspectRatio="xMidYMid meet">

<g transform="translate(0.000000,512.000000) scale(0.100000,-0.100000)"
fill="#000000" stroke="none">
<path d="M2031 5000 c-24 -11 -71 -40 -105 -64 -84 -60 -294 -185 -395 -235
-357 -180 -690 -275 -1092 -315 -160 -15 -200 -29 -256 -88 -64 -67 -73 -102
-73 -309 0 -172 2 -188 20 -212 30 -38 80 -52 123 -33 59 24 67 53 67 235 0
156 1 161 22 174 13 8 81 19 156 26 535 47 1055 243 1560 588 35 24 69 43 75
43 7 0 57 -30 112 -66 497 -327 1010 -517 1524 -565 156 -14 160 -16 171 -45
13 -33 13 -1575 0 -1703 -10 -111 1 -150 49 -175 38 -20 64 -20 102 0 66 34
64 -6 67 987 3 1026 7 973 -77 1057 -59 59 -107 75 -267 89 -497 44 -960 214
-1451 533 -67 43 -136 83 -155 88 -53 16 -129 11 -177 -10z"/>
<path d="M2000 4146 c-195 -54 -340 -205 -386 -403 -12 -53 -15 -108 -12 -253
4 -166 7 -192 29 -250 51 -134 144 -240 263 -298 87 -43 139 -55 236 -55 242
-1 444 150 517 388 15 49 18 94 18 250 0 168 -3 198 -22 260 -56 177 -200 314
-378 360 -70 18 -202 18 -265 1z m274 -230 c60 -29 113 -82 148 -148 22 -41
23 -54 23 -243 0 -197 0 -201 -27 -250 -32 -60 -87 -114 -148 -146 -37 -20
-60 -24 -135 -24 -75 0 -98 4 -139 24 -66 33 -123 91 -154 160 -46 100 -43
392 5 485 21 41 92 115 127 133 97 51 208 54 300 9z"/>
<path d="M158 3503 c-14 -9 -31 -27 -37 -40 -18 -39 -14 -1022 4 -1150 54
-379 216 -732 497 -1085 120 -151 390 -415 573 -562 234 -187 528 -379 776
-507 71 -37 95 -44 154 -47 66 -3 75 -1 160 41 153 75 394 223 592 364 91 65
106 133 41 188 -48 41 -92 34 -179 -26 -240 -165 -567 -359 -607 -359 -27 0
-307 160 -477 273 -147 98 -341 247 -477 366 -405 355 -675 747 -791 1146 -58
198 -60 227 -66 812 l-6 543 -26 26 c-33 33 -94 41 -131 17z"/>
<path d="M1645 2663 c-201 -28 -366 -158 -436 -342 -28 -76 -42 -177 -29 -217
22 -66 104 -96 159 -58 27 20 51 72 51 113 0 67 32 134 95 197 97 98 80 95
671 92 499 -3 499 -3 542 -26 103 -55 168 -149 179 -258 9 -97 43 -134 119
-134 26 0 44 8 65 29 25 26 29 37 29 88 0 216 -155 424 -369 495 -64 21 -81
22 -556 24 -269 1 -503 0 -520 -3z"/>
<path d="M3940 2020 c-275 -33 -529 -191 -685 -425 -258 -387 -200 -899 137
-1221 176 -168 374 -251 624 -261 186 -8 307 18 472 100 230 113 408 330 488
592 25 82 28 104 28 255 1 142 -2 177 -22 249 -47 173 -140 329 -266 449 -93
88 -145 124 -259 177 -107 49 -180 70 -297 85 -93 11 -124 11 -220 0z m345
-244 c237 -80 410 -260 486 -506 31 -98 33 -289 5 -390 -72 -261 -275 -464
-536 -536 -101 -28 -292 -26 -390 5 -246 76 -425 248 -506 486 -22 64 -28 104
-32 201 -5 147 16 245 80 374 34 69 60 103 138 180 77 78 111 104 180 138 133
66 210 83 365 79 109 -3 143 -8 210 -31z"/>
<path d="M4335 1381 c-16 -10 -113 -103 -215 -205 l-184 -185 -92 89 c-84 83
-94 90 -131 90 -73 0 -121 -65 -101 -135 11 -40 252 -281 295 -296 18 -6 43
-7 55 -4 36 11 516 494 529 532 20 61 -35 133 -103 133 -13 0 -36 -9 -53 -19z"/>
</g>
</svg>
